<?xml version="1.0" standalone="no"?>
<!DOCTYPE svg PUBLIC "-//W3C//DTD SVG 20010904//EN"
 "http://www.w3.org/TR/2001/REC-SVG-20010904/DTD/svg10.dtd">
<svg version="1.0" xmlns="http://www.w3.org/2000/svg"
 width="373.000000pt" height="380.000000pt" viewBox="0 0 373.000000 380.000000"
 preserveAspectRatio="xMidYMid meet">
<metadata>
Created by potrace 1.15, written by Peter Selinger 2001-2017
</metadata>
<g transform="translate(0.000000,380.000000) scale(0.100000,-0.100000)"
fill="#000000" stroke="none">
<path d="M1685 3609 c-587 -68 -1062 -398 -1319 -916 -175 -352 -214 -761
-110 -1160 117 -453 460 -859 895 -1062 514 -239 1136 -193 1607 121 359 240
618 621 702 1033 91 446 5 886 -247 1265 -149 223 -394 437 -638 557 -275 135
-606 195 -890 162z m356 -134 c350 -49 634 -190 879 -435 205 -205 352 -468
410 -735 19 -85 40 -266 40 -340 0 -156 -44 -387 -101 -537 -178 -464 -560
-806 -1040 -931 -153 -40 -247 -50 -434 -44 -406 12 -732 153 -1021 442 -234
233 -374 505 -429 831 -23 135 -16 429 13 559 59 261 176 492 349 688 333 378
847 571 1334 502z"/>
<path d="M1751 2890 c-110 -23 -226 -104 -283 -196 -56 -90 -62 -118 -68 -309
l-5 -180 -108 -5 c-104 -5 -110 -6 -133 -33 l-24 -28 0 -517 c0 -462 2 -520
16 -541 36 -51 37 -51 702 -51 416 0 629 4 650 11 64 22 62 5 62 584 l0 526
-25 24 c-23 24 -31 25 -133 25 l-109 0 -5 173 c-4 146 -8 181 -27 229 -47 122
-145 222 -258 265 -67 26 -186 37 -252 23z m235 -153 c57 -29 112 -86 146
-149 20 -39 23 -60 26 -215 l4 -173 -322 0 -322 0 4 168 c5 180 10 200 67 279
32 44 91 87 151 110 57 22 185 12 246 -20z m-58 -931 c34 -32 37 -39 37 -90 0
-48 -4 -59 -32 -88 -32 -33 -32 -34 -35 -148 l-3 -115 -52 -3 -53 -3 0 120 c0
110 -2 121 -20 131 -46 25 -64 113 -35 170 20 38 59 59 113 60 35 0 49 -6 80
-34z"/>
</g>
</svg>
